<svg width="64" height="64" viewBox="0 0 64 64" fill="none" xmlns="http://www.w3.org/2000/svg">
<g clip-path="url(#clip0_104_104)">
<path fill-rule="evenodd" clip-rule="evenodd" d="M64 64H51.2V41.6031C51.2 35.4591 48.4896 32.0313 43.6288 32.0313C38.3392 32.0313 35.2 35.6031 35.2 41.6031V64H22.4V22.4H35.2V27.0781C35.2 27.0781 39.216 20.0313 48.2656 20.0313C57.3184 20.0313 64 25.5555 64 36.9859V64ZM7.8144 15.7469C3.4976 15.7469 0 12.2207 0 7.87188C0 3.52627 3.4976 0 7.8144 0C12.128 0 15.6256 3.52627 15.6256 7.87188C15.6288 12.2207 12.128 15.7469 7.8144 15.7469ZM0 64H16V22.4H0V64Z" fill="white"/>
</g>
<defs>
<clipPath id="clip0_104_104">
<rect width="64" height="64" fill="white"/>
</clipPath>
</defs>
</svg>
