<svg width="337" height="337" viewBox="0 0 337 337" fill="none" xmlns="http://www.w3.org/2000/svg">
<rect width="337" height="337" rx="55" fill="#282828"/>
<path d="M104 214.8C102.533 215.067 100.333 215.4 97.4 215.8C94.6 216.333 91.7333 216.6 88.8 216.6C85.8667 216.6 83.2 216.4 80.8 216C78.5333 215.6 76.6 214.8 75 213.6C73.4 212.4 72.1333 210.8 71.2 208.8C70.4 206.667 70 203.933 70 200.6V84.6C71.4667 84.3333 73.6 84 76.4 83.6C79.3333 83.0667 82.2667 82.8 85.2 82.8C88.1333 82.8 90.7333 83 93 83.4C95.4 83.8 97.4 84.6 99 85.8C100.6 87 101.8 88.6667 102.6 90.8C103.533 92.8 104 95.4667 104 98.8V214.8ZM172.855 114.8C180.455 114.8 187.321 115.8 193.455 117.8C199.721 119.667 204.988 122.133 209.255 125.2C211.921 127.067 213.988 129.133 215.455 131.4C217.055 133.667 217.855 136.6 217.855 140.2V210.2C217.855 217.267 216.521 223.333 213.855 228.4C211.188 233.6 207.521 237.867 202.855 241.2C198.321 244.667 192.921 247.2 186.655 248.8C180.521 250.4 173.921 251.2 166.855 251.2C154.721 251.2 145.188 249.533 138.255 246.2C131.321 243 127.855 237.733 127.855 230.4C127.855 227.333 128.455 224.6 129.655 222.2C130.988 219.933 132.455 218.2 134.055 217C137.921 219.133 142.255 220.933 147.055 222.4C151.988 223.867 157.055 224.6 162.255 224.6C169.455 224.6 175.188 223.4 179.455 221C183.721 218.6 185.855 214.733 185.855 209.4V206.2C180.388 208.6 173.721 209.8 165.855 209.8C159.855 209.8 154.121 208.933 148.655 207.2C143.321 205.333 138.588 202.533 134.455 198.8C130.455 194.933 127.188 190 124.655 184C122.255 178 121.055 170.867 121.055 162.6C121.055 154.467 122.321 147.4 124.855 141.4C127.521 135.4 131.121 130.467 135.655 126.6C140.321 122.6 145.788 119.667 152.055 117.8C158.455 115.8 165.388 114.8 172.855 114.8ZM185.255 143.8C184.321 143.267 182.921 142.733 181.055 142.2C179.321 141.667 177.121 141.4 174.455 141.4C167.921 141.4 162.988 143.267 159.655 147C156.455 150.6 154.855 155.8 154.855 162.6C154.855 170.333 156.455 175.933 159.655 179.4C162.988 182.733 167.188 184.4 172.255 184.4C177.721 184.4 182.055 183.133 185.255 180.6V143.8Z" fill="white"/>
<path d="M232.931 198.8C232.931 193.2 234.665 188.533 238.131 184.8C241.598 181.067 246.331 179.2 252.331 179.2C258.331 179.2 263.065 181.067 266.531 184.8C269.998 188.533 271.731 193.2 271.731 198.8C271.731 204.4 269.998 209.067 266.531 212.8C263.065 216.533 258.331 218.4 252.331 218.4C246.331 218.4 241.598 216.533 238.131 212.8C234.665 209.067 232.931 204.4 232.931 198.8Z" fill="#57569B"/>
</svg>
